<svg xmlns="http://www.w3.org/2000/svg" viewBox="0 0 512 512">
  <defs>
    <linearGradient id="g" x1="0" x2="1" y1="0" y2="1">
      <stop offset="0" stop-color="#EF4F74"/>
      <stop offset="0.58" stop-color="#F15D68"/>
      <stop offset="1" stop-color="#F2673D"/>
    </linearGradient>
  </defs>
  <rect width="512" height="512" rx="112" fill="url(#g)"/>
  <path d="M150 330c58-6 119-30 185-73 25-17 47-33 66-49 13-11 14-30 3-43-10-12-28-15-42-6l-102 66-82-70c-8-7-20-8-29-2l-18 12 56 104-71 46c-9 6-13 18-8 28 5 9 15 14 26 12l16-25z" fill="#fff"/>
  <path d="M149 369h214" stroke="#fff" stroke-width="26" stroke-linecap="round" opacity=".9"/>
</svg>
